<mxfile host="Electron" agent="Mozilla/5.0 (Windows NT 10.0; Win64; x64) AppleWebKit/537.36 (KHTML, like Gecko) draw.io/28.0.4 Chrome/138.0.7204.97 Electron/37.2.1 Safari/537.36" version="28.0.4">
  <diagram name="Безопасность данных PropDevelopment" id="security-mindmap">
    <mxGraphModel dx="4132" dy="2402" grid="1" gridSize="10" guides="1" tooltips="1" connect="1" arrows="1" fold="1" page="1" pageScale="1" pageWidth="1920" pageHeight="1200" math="0" shadow="0">
      <root>
        <mxCell id="0" />
        <mxCell id="1" parent="0" />
        <mxCell id="2NA0vALlSBTyIPvCq7Zl-3" value="" style="rounded=0;whiteSpace=wrap;html=1;" vertex="1" parent="1">
          <mxGeometry y="200" width="1800" height="1120" as="geometry" />
        </mxCell>
        <mxCell id="root" value="Безопасность данных&#xa;PropDevelopment" style="rounded=1;whiteSpace=wrap;html=1;fontSize=16;fontStyle=1;fillColor=#dae8fc;strokeColor=#6c8ebf;strokeWidth=3;" parent="1" vertex="1">
          <mxGeometry x="800" y="560" width="200" height="80" as="geometry" />
        </mxCell>
        <mxCell id="public" value="Публичные данные" style="rounded=1;whiteSpace=wrap;html=1;fontSize=14;fontStyle=1;fillColor=#d5e8d4;strokeColor=#82b366;" parent="1" vertex="1">
          <mxGeometry x="560" y="460" width="160" height="60" as="geometry" />
        </mxCell>
        <mxCell id="edge1" style="edgeStyle=orthogonalEdgeStyle;rounded=1;orthogonalLoop=1;jettySize=auto;html=1;strokeWidth=2;curved=0;" parent="1" source="root" target="public" edge="1">
          <mxGeometry relative="1" as="geometry" />
        </mxCell>
        <mxCell id="public-data" value="Данные:&#xa;• Информация о ЖК&#xa;• Характеристики квартир&#xa;• Цены на недвижимость&#xa;• Контакты отделов продаж" style="rounded=0;whiteSpace=wrap;html=1;fontSize=11;align=left;fillColor=#f5f5f5;strokeColor=#666666;" parent="1" vertex="1">
          <mxGeometry x="280" y="230" width="200" height="100" as="geometry" />
        </mxCell>
        <mxCell id="edge2" style="edgeStyle=orthogonalEdgeStyle;rounded=1;orthogonalLoop=1;jettySize=auto;html=1;strokeWidth=1;entryX=1;entryY=0.5;entryDx=0;entryDy=0;curved=0;" parent="1" target="public-data" edge="1">
          <mxGeometry relative="1" as="geometry">
            <mxPoint x="560" y="490" as="sourcePoint" />
            <mxPoint x="479.9999999999999" y="320" as="targetPoint" />
            <Array as="points">
              <mxPoint x="559" y="490" />
              <mxPoint x="520" y="490" />
              <mxPoint x="520" y="330" />
            </Array>
          </mxGeometry>
        </mxCell>
        <mxCell id="public-risk1" value="Риск: Искажение данных&#xa;Уровень: ЗНАЧИТЕЛЬНЫЙ" style="rounded=1;whiteSpace=wrap;html=1;fontSize=11;fontStyle=1;fillColor=#fff2cc;strokeColor=#d6b656;" parent="1" vertex="1">
          <mxGeometry x="280" y="400" width="200" height="40" as="geometry" />
        </mxCell>
        <mxCell id="edge3" style="edgeStyle=orthogonalEdgeStyle;rounded=1;orthogonalLoop=1;jettySize=auto;html=1;strokeWidth=1;curved=0;entryX=1;entryY=0.5;entryDx=0;entryDy=0;" parent="1" source="public" target="public-risk1" edge="1">
          <mxGeometry relative="1" as="geometry" />
        </mxCell>
        <mxCell id="public-risk1-exp" value="Обоснование:&#xa;• Неверная информация о недвижимости&#xa;• Потеря доверия клиентов&#xa;• Юридические проблемы&#xa;• Репутационный ущерб для топ-3 застройщика" style="rounded=0;whiteSpace=wrap;html=1;fontSize=10;align=left;fillColor=#e1d5e7;strokeColor=#9673a6;" parent="1" vertex="1">
          <mxGeometry x="40" y="370" width="200" height="100" as="geometry" />
        </mxCell>
        <mxCell id="edge4" style="edgeStyle=orthogonalEdgeStyle;rounded=0;orthogonalLoop=1;jettySize=auto;html=1;strokeWidth=1;dashed=1;" parent="1" source="public-risk1" target="public-risk1-exp" edge="1">
          <mxGeometry relative="1" as="geometry" />
        </mxCell>
        <mxCell id="public-risk2" value="Риск: Обесценивание данных&#xa;Уровень: НЕЗНАЧИТЕЛЬНЫЙ" style="rounded=1;whiteSpace=wrap;html=1;fontSize=11;fontStyle=1;fillColor=#d5e8d4;strokeColor=#82b366;" parent="1" vertex="1">
          <mxGeometry x="280" y="520" width="200" height="40" as="geometry" />
        </mxCell>
        <mxCell id="edge5" style="edgeStyle=orthogonalEdgeStyle;rounded=1;orthogonalLoop=1;jettySize=auto;html=1;strokeWidth=1;curved=0;" parent="1" source="public" target="public-risk2" edge="1">
          <mxGeometry relative="1" as="geometry">
            <Array as="points">
              <mxPoint x="520" y="490" />
              <mxPoint x="520" y="545" />
            </Array>
          </mxGeometry>
        </mxCell>
        <mxCell id="public-risk2-exp" value="Обоснование:&#xa;• Данные регулярно обновляются&#xa;• Легко заменить устаревшую информацию&#xa;• Не влечет критических последствий" style="rounded=0;whiteSpace=wrap;html=1;fontSize=10;align=left;fillColor=#e1d5e7;strokeColor=#9673a6;" parent="1" vertex="1">
          <mxGeometry x="40" y="500" width="200" height="80" as="geometry" />
        </mxCell>
        <mxCell id="edge6" style="edgeStyle=orthogonalEdgeStyle;rounded=0;orthogonalLoop=1;jettySize=auto;html=1;strokeWidth=1;dashed=1;" parent="1" source="public-risk2" target="public-risk2-exp" edge="1">
          <mxGeometry relative="1" as="geometry" />
        </mxCell>
        <mxCell id="internal" value="Внутренние данные" style="rounded=1;whiteSpace=wrap;html=1;fontSize=14;fontStyle=1;fillColor=#d5e8d4;strokeColor=#82b366;" parent="1" vertex="1">
          <mxGeometry x="1080" y="460" width="160" height="60" as="geometry" />
        </mxCell>
        <mxCell id="edge7" style="edgeStyle=orthogonalEdgeStyle;rounded=0;orthogonalLoop=1;jettySize=auto;html=1;strokeWidth=2;" parent="1" source="root" target="internal" edge="1">
          <mxGeometry relative="1" as="geometry" />
        </mxCell>
        <mxCell id="internal-data" value="Данные:&#xa;• Аналитика продаж&#xa;• Отчеты BI-системы&#xa;• Данные о бронированиях&#xa;• Статистика онлайн-туров&#xa;• Логи системных событий" style="rounded=0;whiteSpace=wrap;html=1;fontSize=11;align=left;fillColor=#f5f5f5;strokeColor=#666666;" parent="1" vertex="1">
          <mxGeometry x="1320" y="230" width="200" height="100" as="geometry" />
        </mxCell>
        <mxCell id="edge8" style="edgeStyle=orthogonalEdgeStyle;rounded=1;orthogonalLoop=1;jettySize=auto;html=1;strokeWidth=1;curved=0;" parent="1" source="internal" target="internal-data" edge="1">
          <mxGeometry relative="1" as="geometry">
            <Array as="points">
              <mxPoint x="1280" y="490" />
              <mxPoint x="1280" y="280" />
            </Array>
          </mxGeometry>
        </mxCell>
        <mxCell id="internal-risk1" value="Риск: Утечка данных&#xa;Уровень: ЗНАЧИТЕЛЬНЫЙ" style="rounded=1;whiteSpace=wrap;html=1;fontSize=11;fontStyle=1;fillColor=#fff2cc;strokeColor=#d6b656;" parent="1" vertex="1">
          <mxGeometry x="1320" y="400" width="200" height="40" as="geometry" />
        </mxCell>
        <mxCell id="edge9" style="edgeStyle=orthogonalEdgeStyle;rounded=1;orthogonalLoop=1;jettySize=auto;html=1;strokeWidth=1;entryX=0;entryY=0.5;entryDx=0;entryDy=0;curved=0;" parent="1" source="internal" target="internal-risk1" edge="1">
          <mxGeometry relative="1" as="geometry" />
        </mxCell>
        <mxCell id="internal-risk1-exp" value="Обоснование:&#xa;• Раскрытие бизнес-стратегии конкурентам&#xa;• Потеря конкурентных преимуществ&#xa;• Использование аналитики для демпинга&#xa;• Недавняя утечка у конкурента" style="rounded=0;whiteSpace=wrap;html=1;fontSize=10;align=left;fillColor=#e1d5e7;strokeColor=#9673a6;" parent="1" vertex="1">
          <mxGeometry x="1560" y="380" width="220" height="80" as="geometry" />
        </mxCell>
        <mxCell id="edge10" style="edgeStyle=orthogonalEdgeStyle;rounded=0;orthogonalLoop=1;jettySize=auto;html=1;strokeWidth=1;dashed=1;" parent="1" source="internal-risk1" target="internal-risk1-exp" edge="1">
          <mxGeometry relative="1" as="geometry" />
        </mxCell>
        <mxCell id="internal-risk2" value="Риск: Потеря данных&#xa;Уровень: ЗНАЧИТЕЛЬНЫЙ" style="rounded=1;whiteSpace=wrap;html=1;fontSize=11;fontStyle=1;fillColor=#fff2cc;strokeColor=#d6b656;" parent="1" vertex="1">
          <mxGeometry x="1320" y="520" width="200" height="40" as="geometry" />
        </mxCell>
        <mxCell id="edge11" style="edgeStyle=orthogonalEdgeStyle;rounded=1;orthogonalLoop=1;jettySize=auto;html=1;strokeWidth=1;curved=0;" parent="1" source="internal" target="internal-risk2" edge="1">
          <mxGeometry relative="1" as="geometry" />
        </mxCell>
        <mxCell id="internal-risk2-exp" value="Обоснование:&#xa;• Блокировка управленческих решений&#xa;• Нарушение бизнес-процессов&#xa;• Невозможность развития BI/ML/AI сервисов&#xa;• Усложнение расследования инцидентов" style="rounded=0;whiteSpace=wrap;html=1;fontSize=10;align=left;fillColor=#e1d5e7;strokeColor=#9673a6;" parent="1" vertex="1">
          <mxGeometry x="1560" y="500" width="220" height="80" as="geometry" />
        </mxCell>
        <mxCell id="edge12" style="edgeStyle=orthogonalEdgeStyle;rounded=0;orthogonalLoop=1;jettySize=auto;html=1;strokeWidth=1;dashed=1;" parent="1" source="internal-risk2" target="internal-risk2-exp" edge="1">
          <mxGeometry relative="1" as="geometry" />
        </mxCell>
        <mxCell id="internal-risk3" value="Риск: Некачественные данные&#xa;Уровень: ЗНАЧИТЕЛЬНЫЙ" style="rounded=1;whiteSpace=wrap;html=1;fontSize=11;fontStyle=1;fillColor=#fff2cc;strokeColor=#d6b656;" parent="1" vertex="1">
          <mxGeometry x="1320" y="640" width="200" height="50" as="geometry" />
        </mxCell>
        <mxCell id="edge13" style="edgeStyle=orthogonalEdgeStyle;rounded=1;orthogonalLoop=1;jettySize=auto;html=1;strokeWidth=1;entryX=0;entryY=0.5;entryDx=0;entryDy=0;curved=0;" parent="1" source="internal" target="internal-risk3" edge="1">
          <mxGeometry relative="1" as="geometry" />
        </mxCell>
        <mxCell id="internal-risk3-exp" value="Обоснование:&#xa;• Несколько точек регистрации без координации&#xa;• Нет системного контроля потоков данных&#xa;• Отсутствуют ограничения доступа&#xa;• Ошибки в отчетности и решениях" style="rounded=0;whiteSpace=wrap;html=1;fontSize=10;align=left;fillColor=#e1d5e7;strokeColor=#9673a6;" parent="1" vertex="1">
          <mxGeometry x="1560" y="625" width="220" height="80" as="geometry" />
        </mxCell>
        <mxCell id="edge14" style="edgeStyle=orthogonalEdgeStyle;rounded=0;orthogonalLoop=1;jettySize=auto;html=1;strokeWidth=1;dashed=1;" parent="1" source="internal-risk3" target="internal-risk3-exp" edge="1">
          <mxGeometry relative="1" as="geometry" />
        </mxCell>
        <mxCell id="confidential" value="Конфиденциальные&#xa;данные" style="rounded=1;whiteSpace=wrap;html=1;fontSize=14;fontStyle=1;fillColor=#fff2cc;strokeColor=#d6b656;" parent="1" vertex="1">
          <mxGeometry x="560" y="900" width="160" height="60" as="geometry" />
        </mxCell>
        <mxCell id="edge15" style="edgeStyle=orthogonalEdgeStyle;rounded=1;orthogonalLoop=1;jettySize=auto;html=1;strokeWidth=2;curved=0;" parent="1" source="root" target="confidential" edge="1">
          <mxGeometry relative="1" as="geometry" />
        </mxCell>
        <mxCell id="confidential-data" value="Данные:&#xa;• ПДн клиентов (ФИО, телефон, email)&#xa;• Данные CRM-систем&#xa;• Информация о собственниках&#xa;• Финансовые данные платежей ЖКУ&#xa;• API-ключи партнеров" style="rounded=0;whiteSpace=wrap;html=1;fontSize=11;align=left;fillColor=#f5f5f5;strokeColor=#666666;" parent="1" vertex="1">
          <mxGeometry x="280" y="670" width="200" height="100" as="geometry" />
        </mxCell>
        <mxCell id="edge16" style="edgeStyle=orthogonalEdgeStyle;rounded=1;orthogonalLoop=1;jettySize=auto;html=1;strokeWidth=1;curved=0;" parent="1" source="confidential" target="confidential-data" edge="1">
          <mxGeometry relative="1" as="geometry">
            <Array as="points">
              <mxPoint x="520" y="930" />
              <mxPoint x="520" y="720" />
            </Array>
          </mxGeometry>
        </mxCell>
        <mxCell id="confidential-risk1" value="Риск: Утечка данных&#xa;Уровень: КРИТИЧЕСКИЙ" style="rounded=1;whiteSpace=wrap;html=1;fontSize=11;fontStyle=1;fillColor=#f8cecc;strokeColor=#b85450;" parent="1" vertex="1">
          <mxGeometry x="280" y="840" width="200" height="40" as="geometry" />
        </mxCell>
        <mxCell id="confidential-risk1-exp" value="Обоснование:&#xa;• Нарушение ФЗ-152 (штрафы до 500 000 руб.)&#xa;• Серьезный репутационный ущерб&#xa;• API партнеров содержат ПДн&#xa;• Нет единых политик безопасности&#xa;• Отсутствует контроль передачи данных" style="rounded=0;whiteSpace=wrap;html=1;fontSize=10;align=left;fillColor=#e1d5e7;strokeColor=#9673a6;" parent="1" vertex="1">
          <mxGeometry x="40" y="810" width="200" height="100" as="geometry" />
        </mxCell>
        <mxCell id="edge18" style="edgeStyle=orthogonalEdgeStyle;rounded=0;orthogonalLoop=1;jettySize=auto;html=1;strokeWidth=1;dashed=1;" parent="1" source="confidential-risk1" target="confidential-risk1-exp" edge="1">
          <mxGeometry relative="1" as="geometry" />
        </mxCell>
        <mxCell id="edge19" style="edgeStyle=orthogonalEdgeStyle;rounded=1;orthogonalLoop=1;jettySize=auto;html=1;strokeWidth=1;entryX=1;entryY=0.5;entryDx=0;entryDy=0;curved=0;" parent="1" source="confidential" target="confidential-risk1" edge="1">
          <mxGeometry relative="1" as="geometry" />
        </mxCell>
        <mxCell id="confidential-risk2-exp" value="Обоснование:&#xa;• Клиенты видят чужие данные (жалобы)&#xa;• Партнеры видят данные других компаний&#xa;• Нарушение целостности CRM&#xa;• Ошибки в обслуживании и платежах&#xa;• Юридические риски" style="rounded=0;whiteSpace=wrap;html=1;fontSize=10;align=left;fillColor=#e1d5e7;strokeColor=#9673a6;" parent="1" vertex="1">
          <mxGeometry x="40" y="930" width="200" height="100" as="geometry" />
        </mxCell>
        <mxCell id="edge20" style="edgeStyle=orthogonalEdgeStyle;rounded=0;orthogonalLoop=1;jettySize=auto;html=1;strokeWidth=1;dashed=1;" parent="1" source="confidential-risk2" target="confidential-risk2-exp" edge="1">
          <mxGeometry relative="1" as="geometry" />
        </mxCell>
        <mxCell id="secret" value="Секретные данные" style="rounded=1;whiteSpace=wrap;html=1;fontSize=14;fontStyle=1;fillColor=#f8cecc;strokeColor=#b85450;" parent="1" vertex="1">
          <mxGeometry x="1080" y="900" width="160" height="60" as="geometry" />
        </mxCell>
        <mxCell id="edge21" style="edgeStyle=orthogonalEdgeStyle;rounded=0;orthogonalLoop=1;jettySize=auto;html=1;strokeWidth=2;" parent="1" source="root" target="secret" edge="1">
          <mxGeometry relative="1" as="geometry" />
        </mxCell>
        <mxCell id="secret-data" value="Данные:&#xa;• Документы онлайн-сделок&#xa;• Паспортные данные&#xa;• Банковские реквизиты&#xa;• Коды доступа к Умному дому&#xa;• Учетные данные систем&#xa;• Ключи шифрования&#xa;• Данные интеграций с госорганами" style="rounded=0;whiteSpace=wrap;html=1;fontSize=11;align=left;fillColor=#f5f5f5;strokeColor=#666666;" parent="1" vertex="1">
          <mxGeometry x="1320" y="760" width="200" height="120" as="geometry" />
        </mxCell>
        <mxCell id="edge22" style="edgeStyle=orthogonalEdgeStyle;rounded=1;orthogonalLoop=1;jettySize=auto;html=1;strokeWidth=1;curved=0;" parent="1" source="secret" target="secret-data" edge="1">
          <mxGeometry relative="1" as="geometry">
            <Array as="points">
              <mxPoint x="1280" y="930" />
              <mxPoint x="1280" y="820" />
            </Array>
          </mxGeometry>
        </mxCell>
        <mxCell id="secret-risk1" value="Риск: Утечка данных&#xa;Уровень: КРИТИЧЕСКИЙ" style="rounded=1;whiteSpace=wrap;html=1;fontSize=11;fontStyle=1;fillColor=#f8cecc;strokeColor=#b85450;" parent="1" vertex="1">
          <mxGeometry x="1320" y="960" width="200" height="50" as="geometry" />
        </mxCell>
        <mxCell id="edge23" style="edgeStyle=orthogonalEdgeStyle;rounded=1;orthogonalLoop=1;jettySize=auto;html=1;strokeWidth=1;curved=0;" parent="1" source="secret" target="secret-risk1" edge="1">
          <mxGeometry relative="1" as="geometry" />
        </mxCell>
        <mxCell id="secret-risk1-exp" value="Обоснование:&#xa;• Уголовная ответственность&#xa;• Угроза физической безопасности жильцов&#xa;• Полная компрометация системы защиты&#xa;• Прекращение интеграций с госорганами&#xa;• Специалист по ИБ не информирован&#xa;• Многомиллионные штрафы" style="rounded=0;whiteSpace=wrap;html=1;fontSize=10;align=left;fillColor=#e1d5e7;strokeColor=#9673a6;" parent="1" vertex="1">
          <mxGeometry x="1560" y="935" width="220" height="100" as="geometry" />
        </mxCell>
        <mxCell id="edge24" style="edgeStyle=orthogonalEdgeStyle;rounded=0;orthogonalLoop=1;jettySize=auto;html=1;strokeWidth=1;dashed=1;" parent="1" source="secret-risk1" target="secret-risk1-exp" edge="1">
          <mxGeometry relative="1" as="geometry" />
        </mxCell>
        <mxCell id="secret-risk2" value="Риск: Потеря данных&#xa;Уровень: КРИТИЧЕСКИЙ" style="rounded=1;whiteSpace=wrap;html=1;fontSize=11;fontStyle=1;fillColor=#f8cecc;strokeColor=#b85450;" parent="1" vertex="1">
          <mxGeometry x="1320" y="1080" width="200" height="50" as="geometry" />
        </mxCell>
        <mxCell id="edge25" style="edgeStyle=orthogonalEdgeStyle;rounded=1;orthogonalLoop=1;jettySize=auto;html=1;strokeWidth=1;curved=0;" parent="1" source="secret" target="secret-risk2" edge="1">
          <mxGeometry relative="1" as="geometry">
            <Array as="points">
              <mxPoint x="1280" y="930" />
              <mxPoint x="1280" y="1105" />
            </Array>
          </mxGeometry>
        </mxCell>
        <mxCell id="secret-risk2-exp" value="Обоснование:&#xa;• Невозможность проведения сделок&#xa;• Остановка финансового учета&#xa;• Потеря управления Умным домом&#xa;• Остановка интеграций с госорганами&#xa;• Многомиллионные потери" style="rounded=0;whiteSpace=wrap;html=1;fontSize=10;align=left;fillColor=#e1d5e7;strokeColor=#9673a6;" parent="1" vertex="1">
          <mxGeometry x="1560" y="1060" width="220" height="90" as="geometry" />
        </mxCell>
        <mxCell id="edge26" style="edgeStyle=orthogonalEdgeStyle;rounded=0;orthogonalLoop=1;jettySize=auto;html=1;strokeWidth=1;dashed=1;" parent="1" source="secret-risk2" target="secret-risk2-exp" edge="1">
          <mxGeometry relative="1" as="geometry" />
        </mxCell>
        <mxCell id="secret-risk3" value="Риск: Искажение данных&#xa;Уровень: КРИТИЧЕСКИЙ" style="rounded=1;whiteSpace=wrap;html=1;fontSize=11;fontStyle=1;fillColor=#f8cecc;strokeColor=#b85450;" parent="1" vertex="1">
          <mxGeometry x="1320" y="1200" width="200" height="50" as="geometry" />
        </mxCell>
        <mxCell id="edge27" style="edgeStyle=orthogonalEdgeStyle;rounded=1;orthogonalLoop=1;jettySize=auto;html=1;strokeWidth=1;curved=0;" parent="1" source="secret" target="secret-risk3" edge="1">
          <mxGeometry relative="1" as="geometry">
            <Array as="points">
              <mxPoint x="1280" y="930" />
              <mxPoint x="1280" y="1225" />
            </Array>
          </mxGeometry>
        </mxCell>
        <mxCell id="secret-risk3-exp" value="Обоснование:&#xa;• Недействительность сделок&#xa;• Финансовые мошенничества&#xa;• Угроза безопасности жильцов&#xa;• Налоговые и юридические проблемы&#xa;• Компрометация госинтеграций&#xa;• Проблемы с API партнеров" style="rounded=0;whiteSpace=wrap;html=1;fontSize=10;align=left;fillColor=#e1d5e7;strokeColor=#9673a6;" parent="1" vertex="1">
          <mxGeometry x="1560" y="1175" width="220" height="100" as="geometry" />
        </mxCell>
        <mxCell id="edge28" style="edgeStyle=orthogonalEdgeStyle;rounded=0;orthogonalLoop=1;jettySize=auto;html=1;strokeWidth=1;dashed=1;" parent="1" source="secret-risk3" target="secret-risk3-exp" edge="1">
          <mxGeometry relative="1" as="geometry" />
        </mxCell>
        <mxCell id="legend-title" value="Легенда уровней риска:" style="text;html=1;strokeColor=none;fillColor=none;align=left;verticalAlign=middle;whiteSpace=wrap;rounded=0;fontSize=12;fontStyle=1;" parent="1" vertex="1">
          <mxGeometry x="40" y="1160" width="280" height="20" as="geometry" />
        </mxCell>
        <mxCell id="legend-critical" value="КРИТИЧЕСКИЙ" style="rounded=1;whiteSpace=wrap;html=1;fontSize=11;fontStyle=1;fillColor=#f8cecc;strokeColor=#b85450;" parent="1" vertex="1">
          <mxGeometry x="40" y="1180" width="120" height="30" as="geometry" />
        </mxCell>
        <mxCell id="legend-critical-text" value="Требует немедленных действий" style="text;html=1;strokeColor=none;fillColor=none;align=left;verticalAlign=middle;whiteSpace=wrap;rounded=0;fontSize=10;" parent="1" vertex="1">
          <mxGeometry x="170" y="1180" width="180" height="30" as="geometry" />
        </mxCell>
        <mxCell id="legend-significant" value="ЗНАЧИТЕЛЬНЫЙ" style="rounded=1;whiteSpace=wrap;html=1;fontSize=11;fontStyle=1;fillColor=#fff2cc;strokeColor=#d6b656;" parent="1" vertex="1">
          <mxGeometry x="40" y="1215" width="120" height="30" as="geometry" />
        </mxCell>
        <mxCell id="legend-significant-text" value="Требует планирования мер" style="text;html=1;strokeColor=none;fillColor=none;align=left;verticalAlign=middle;whiteSpace=wrap;rounded=0;fontSize=10;" parent="1" vertex="1">
          <mxGeometry x="170" y="1215" width="180" height="30" as="geometry" />
        </mxCell>
        <mxCell id="legend-minor" value="НЕЗНАЧИТЕЛЬНЫЙ" style="rounded=1;whiteSpace=wrap;html=1;fontSize=11;fontStyle=1;fillColor=#d5e8d4;strokeColor=#82b366;" parent="1" vertex="1">
          <mxGeometry x="40" y="1250" width="120" height="30" as="geometry" />
        </mxCell>
        <mxCell id="legend-minor-text" value="Профилактический мониторинг" style="text;html=1;strokeColor=none;fillColor=none;align=left;verticalAlign=middle;whiteSpace=wrap;rounded=0;fontSize=10;" parent="1" vertex="1">
          <mxGeometry x="170" y="1250" width="180" height="30" as="geometry" />
        </mxCell>
        <mxCell id="2NA0vALlSBTyIPvCq7Zl-1" value="" style="edgeStyle=orthogonalEdgeStyle;rounded=1;orthogonalLoop=1;jettySize=auto;html=1;strokeWidth=1;curved=0;" edge="1" parent="1" source="confidential" target="confidential-risk2">
          <mxGeometry relative="1" as="geometry">
            <mxPoint x="570" y="930" as="sourcePoint" />
            <mxPoint x="380" y="840" as="targetPoint" />
            <Array as="points">
              <mxPoint x="520" y="930" />
              <mxPoint x="520" y="980" />
            </Array>
          </mxGeometry>
        </mxCell>
        <mxCell id="confidential-risk2" value="Риск: Искажение данных&#xa;Уровень: КРИТИЧЕСКИЙ" style="rounded=1;whiteSpace=wrap;html=1;fontSize=11;fontStyle=1;fillColor=#f8cecc;strokeColor=#b85450;" parent="1" vertex="1">
          <mxGeometry x="280" y="960" width="200" height="40" as="geometry" />
        </mxCell>
      </root>
    </mxGraphModel>
  </diagram>
</mxfile>
